# xmcd
#
# Track frame offsets:
#	150
#	14692
#	34416
#	53419
#	69207
#	85929
#	105130
#	119597
#	139323
#	158326
#	174125
#	190827
#
# Disc length: 2800 seconds
#
# Revision: 1
# Processed by: cddbd v1.5.2PL0 Copyright (c) Steve Scherf et al.
# Submitted via: audiograbber 1.83.01
#
DISCID=8e0aee0c
DTITLE=Various Artist - CB20546
DYEAR=1900
DGENRE=Country
TTITLE0=Tracy Byrd (Vocal) - The Truth About Men
TTITLE1=Trace Adkins (Vocal) - Then They Do
TTITLE2=Darryl Worely (Vocal) - Have You Forgotten
TTITLE3=Aaron Lines (Vocal) - Love Changes Everthing
TTITLE4=Eric Heatherly (Vocal) - When A Heart Begins To Drift
TTITLE5=Rhett  Akins (Vocal) - In Your Love 
TTITLE6=Tracy Byrd - The Truth About Men
TTITLE7=Trace Adkins - Then They Do
TTITLE8=Darryl Worely - Have You Forgotten
TTITLE9=Aaron Lines - Love Changes Everthing
TTITLE10=Eric Heatherly - When A Heart Begins To Drift
TTITLE11=Rhett  Akins - In Your Love 
EXTD=
EXTT0=
EXTT1=
EXTT2=
EXTT3=
EXTT4=
EXTT5=
EXTT6=
EXTT7=
EXTT8=
EXTT9=
EXTT10=
EXTT11=
PLAYORDER=
